<svg width="32" height="32" viewBox="0 0 32 32" fill="none" xmlns="http://www.w3.org/2000/svg">
<g clip-path="url(#clip0_156_1029)">
<path d="M32 16C32 19.1645 31.0616 22.2579 29.3035 24.8891C27.5454 27.5203 25.0465 29.5711 22.1229 30.7821C19.1993 31.9931 15.9822 32.3099 12.8785 31.6926C9.77482 31.0752 6.92389 29.5513 4.68625 27.3137C2.44861 25.0761 0.92476 22.2251 0.307397 19.1214C-0.309967 16.0177 0.00688671 12.8007 1.21789 9.87707C2.42889 6.95345 4.47965 4.45459 7.11084 2.69649C9.74202 0.938384 12.8355 0 16 0C20.2434 0 24.3131 1.68571 27.3137 4.68629C30.3143 7.68687 32 11.7565 32 16Z" fill="#F7931A"/>
<path fill-rule="evenodd" clip-rule="evenodd" d="M11.3716 7.30621L15.0487 8.29093L15.8705 5.22766L17.7091 5.72657L16.9193 8.6633L18.4189 9.06621L19.2102 6.09748L21.0807 6.59784L20.2749 9.58257C20.2749 9.58257 23.3295 10.2589 24.048 12.7433C24.7665 15.2277 22.4684 16.5324 21.7585 16.5818C21.7585 16.5818 24.4349 18.0495 23.5156 20.9368C22.5964 23.824 19.7745 24.3404 16.8058 23.6786L16 26.7738L14.1295 26.2735L14.9513 23.2262L13.4676 22.8218L12.6458 25.8909L10.7898 25.392L11.6131 22.3375L7.83855 21.3193L8.78982 19.2073C8.78982 19.2073 9.85455 19.4982 10.2575 19.5942C10.6604 19.6902 10.9193 19.2713 11.0327 18.8524C11.1462 18.4335 12.8553 11.4909 13.0167 10.9193C13.1782 10.3477 13.1127 9.90112 12.4349 9.72512C11.7571 9.54912 10.8349 9.27421 10.8349 9.27421L11.3716 7.30621ZM15.0807 16.5004L14.0625 20.5484C14.0625 20.5484 19.1113 22.3709 19.7571 19.8066C20.4029 17.2422 15.0807 16.5004 15.0807 16.5004ZM15.5491 14.5804L16.5484 10.8713C16.5484 10.8713 20.8713 11.6451 20.3389 13.7091C19.8065 15.7731 17.2582 14.9818 15.5491 14.5804Z" fill="white"/>
</g>
<defs>
<clipPath id="clip0_156_1029">
<rect width="32" height="32" fill="white"/>
</clipPath>
</defs>
</svg>
