<svg width="32" height="32" viewBox="0 0 32 32" fill="none" xmlns="http://www.w3.org/2000/svg">
<g clip-path="url(#clip0_157_1042)">
<path fill-rule="evenodd" clip-rule="evenodd" d="M15.9375 0C19.102 0 22.1954 0.938384 24.8266 2.69649C27.4578 4.45459 29.5085 6.95345 30.7195 9.87707C31.9305 12.8007 32.2474 16.0177 31.63 19.1214C31.0127 22.2251 29.4888 25.0761 27.2512 27.3137C25.0135 29.5514 22.1626 31.0752 19.0589 31.6926C15.9552 32.3099 12.7382 31.9931 9.81454 30.7821C6.89092 29.5711 4.39206 27.5203 2.63396 24.8891C0.875853 22.2579 -0.0625305 19.1645 -0.0625305 16C-0.0625305 11.7565 1.62318 7.68687 4.62376 4.68629C7.62434 1.68571 11.694 0 15.9375 0V0Z" fill="white"/>
<path fill-rule="evenodd" clip-rule="evenodd" d="M15.9375 3.43561L20.1469 9.72506L24.3564 16.016L15.9375 20.2574L7.51855 16L11.728 9.70906L15.9375 3.43561ZM15.9375 21.952L7.98546 17.7091L15.9375 28.5643L23.8895 17.7091L15.9375 21.952Z" fill="#161514"/>
<path fill-rule="evenodd" clip-rule="evenodd" d="M15.9374 3.43561L20.1469 9.70906L24.3563 16L15.9374 12.8218V3.43561Z" fill="#161514"/>
<path fill-rule="evenodd" clip-rule="evenodd" d="M15.9374 21.952L23.9054 17.7091L15.9374 28.5804V21.952Z" fill="#161514"/>
<path fill-rule="evenodd" clip-rule="evenodd" d="M15.9374 12.8218L24.3563 16L15.9374 20.2415V12.8218Z" fill="#161514"/>
<path fill-rule="evenodd" clip-rule="evenodd" d="M15.9375 3.43561L11.728 9.70906L7.51855 16L15.9375 12.8218V3.43561Z" fill="#8C8C8C"/>
<path fill-rule="evenodd" clip-rule="evenodd" d="M15.9374 21.952L7.98544 17.7091L15.9374 28.5804V21.952Z" fill="#8A8A8A"/>
<path fill-rule="evenodd" clip-rule="evenodd" d="M15.9375 12.8218L7.51855 16L15.9375 20.2415V12.8218Z" fill="#353535"/>
</g>
<defs>
<clipPath id="clip0_157_1042">
<rect width="32" height="32" fill="white"/>
</clipPath>
</defs>
</svg>
