<svg width="230" height="232" viewBox="0 0 230 232" fill="none" xmlns="http://www.w3.org/2000/svg">
<path d="M27.7476 121.564L27.77 121.483L27.7794 121.402C33.6443 71.0523 75.0695 21.3513 125.251 14.7181C132.591 15.0688 142.188 17.9422 151.438 21.2903C156.066 22.9655 160.583 24.7501 164.657 26.3779C165.287 26.6295 165.906 26.8774 166.513 27.1206C169.754 28.4182 172.664 29.5834 175.041 30.4593C191.315 48.8926 202.395 61.7994 208.857 75.0444C215.306 88.264 217.161 101.843 214.852 121.662C211.925 146.791 199.924 168.636 182.4 185.028C164.864 201.43 141.734 212.431 116.499 215.741L24.744 227.776L3.7071 209.18L27.7476 121.564ZM135.406 53.4246C95.947 58.6005 60.2337 94.7294 55.6445 134.127C53.6319 151.405 57.9412 166.443 66.7423 177.443C69.6018 181.017 72.7991 183.025 76.3609 183.944C79.9122 184.861 83.7631 184.678 87.8784 183.977C91.3061 183.393 94.973 182.437 98.8303 181.431C99.5851 181.235 100.347 181.036 101.116 180.838C105.838 179.621 110.872 178.409 116.267 177.702C136.024 175.11 150.546 165.613 160.668 151.759C170.741 137.972 176.369 119.99 178.642 100.472C179.369 94.2311 180.484 89.2122 181.467 85.018C181.568 84.5862 181.669 84.1618 181.767 83.7447C182.617 80.1447 183.34 77.0842 183.505 74.4138C183.693 71.3664 183.164 68.7853 181.352 66.3421C179.567 63.9353 176.564 61.6984 171.907 59.2316C161.746 53.8492 149.264 51.6068 135.406 53.4246Z" fill="white" stroke="black" stroke-width="2"/>
<path d="M90.4631 154.929L90.4457 154.916L90.4274 154.904C86.6357 152.364 80.9991 148.552 76.4556 144.143C74.1842 141.938 72.2106 139.607 70.8791 137.237C69.5421 134.857 68.8955 132.513 69.1557 130.28C70.5065 118.683 79.1098 104.347 90.4627 92.458C101.819 80.5657 115.657 71.4042 127.248 69.8838C130.478 69.4601 131.744 69.3603 132.849 69.537C133.403 69.6254 133.939 69.7877 134.686 70.0517C134.937 70.1404 135.216 70.2421 135.526 70.3553C136.083 70.5583 136.742 70.7984 137.525 71.0679C137.589 71.1269 137.681 71.2123 137.8 71.3228C138.049 71.5554 138.415 71.8994 138.88 72.3439C139.81 73.2328 141.138 74.5232 142.725 76.1266C145.901 79.3344 150.112 83.791 154.257 88.7899C158.406 93.7925 162.472 99.3196 165.371 104.669C168.292 110.058 169.942 115.116 169.467 119.197C166.747 142.551 145.575 163.976 122.172 167.046C118.87 167.479 115.238 166.973 111.609 165.925C107.991 164.88 104.434 163.313 101.292 161.679C98.1519 160.047 95.4412 158.358 93.5153 157.075C92.5528 156.434 91.7874 155.896 91.2637 155.519C91.0019 155.33 90.8005 155.182 90.6652 155.081C90.6362 155.06 90.6102 155.04 90.5873 155.023C90.5569 155 90.5319 154.981 90.5125 154.967L90.4746 154.938L90.4655 154.931L90.4635 154.93L90.4631 154.929Z" fill="white" stroke="black" stroke-width="2"/>
<path d="M14.3052 117.685C20.1581 67.4379 65.7093 21.3464 116.053 14.7427C166.397 8.13908 202.457 43.5255 196.604 93.7722C190.751 144.019 145.2 190.11 94.8564 196.714L3.70682 208.67L14.3052 117.685ZM113.763 34.398C74.3046 39.5738 38.5913 75.7027 34.0021 115.101C29.4129 154.498 57.687 182.234 97.1457 177.058C136.604 171.882 172.318 135.753 176.907 96.3556C181.496 56.9578 153.222 29.2221 113.763 34.398Z" fill="white" stroke="black" stroke-width="2"/>
<path d="M63.0866 111.286C65.8068 87.9324 86.9787 66.507 110.382 63.4372C133.785 60.3674 150.545 76.8172 147.825 100.171C145.104 123.524 123.932 144.949 100.529 148.019C77.1263 151.089 60.3663 134.639 63.0866 111.286Z" fill="white" stroke="black" stroke-width="2"/>
</svg>
